<svg id="_x30_1_Parrot" enable-background="new 0 0 64 64" height="512" viewBox="0 0 64 64" width="512" xmlns="http://www.w3.org/2000/svg" xmlns:xlink="http://www.w3.org/1999/xlink"><linearGradient id="SVGID_1_" gradientUnits="userSpaceOnUse" x1="32" x2="32" y1="63" y2="1"><stop offset="0" stop-color="#9f2fff"/><stop offset="1" stop-color="#0bb1d3"/></linearGradient><path d="m23 63c12.131 0 22-9.869 22-22 0-.69-.036-1.372-.099-2.046 10.057-.475 18.099-8.782 18.099-18.954 0-10.477-8.523-19-19-19-10.172 0-18.479 8.042-18.954 18.099-.674-.063-1.356-.099-2.046-.099-3.507 0-6.822.829-9.767 2.295l-.236-.236c-1.327-1.328-3.093-2.059-4.97-2.059s-3.642.731-4.969 2.059c-1.327 1.327-2.058 3.091-2.058 4.968s.73 3.642 2.059 4.969l.236.236c-1.466 2.946-2.295 6.261-2.295 9.768 0 12.131 9.869 22 22 22zm0-2c-10.691 0-19.423-8.438-19.949-19h10c.504 5.046 4.773 9 9.949 9s9.446-3.954 9.949-9h10c-.526 10.562-9.258 19-19.949 19zm-8-20c0-4.411 3.589-8 8-8s8 3.589 8 8-3.589 8-8 8-8-3.589-8-8zm36.108-5.578c-.706-1.005-1.108-2.189-1.108-3.422 0-3.309 2.691-6 6-6 1.233 0 2.418.402 3.422 1.108-1.695 3.663-4.651 6.619-8.314 8.314zm8.314-22.53c-1.004.706-2.189 1.108-3.422 1.108-3.309 0-6-2.691-6-6 0-1.233.402-2.417 1.108-3.422 3.663 1.695 6.619 4.651 8.314 8.314zm-22.53-8.314c.706 1.005 1.108 2.189 1.108 3.422 0 3.309-2.691 6-6 6-1.233 0-2.418-.402-3.422-1.108 1.695-3.663 4.651-6.619 8.314-8.314zm-9.075 10.233c1.252.772 2.696 1.189 4.183 1.189 4.411 0 8-3.589 8-8 0-1.486-.417-2.931-1.189-4.183 1.637-.527 3.379-.817 5.189-.817s3.552.29 5.189.817c-.772 1.252-1.189 2.697-1.189 4.183 0 4.411 3.589 8 8 8 1.487 0 2.931-.417 4.183-1.189.527 1.637.817 3.379.817 5.189s-.29 3.552-.817 5.189c-1.252-.772-2.696-1.189-4.183-1.189-4.411 0-8 3.589-8 8 0 1.486.417 2.93 1.189 4.183-1.447.465-2.98.727-4.566.785-.376-2.022-1.028-3.947-1.918-5.736l.236-.236c1.329-1.327 2.059-3.092 2.059-4.969s-.731-3.642-2.059-4.969c-1.327-1.327-3.091-2.058-4.968-2.058s-3.643.731-4.97 2.059l-.236.236c-1.788-.89-3.714-1.542-5.735-1.918.057-1.586.32-3.119.785-4.566zm6.786 7.509c.927-.844 2.108-1.32 3.37-1.32 1.343 0 2.605.523 3.555 1.473s1.473 2.212 1.473 3.555c0 1.262-.476 2.443-1.32 3.37-1.788-2.866-4.213-5.292-7.078-7.078zm8.346 17.68h-10c-.504-5.046-4.773-9-9.949-9s-9.446 3.954-9.949 9h-10c.526-10.562 9.258-19 19.949-19s19.423 8.438 19.949 19zm-39.949-13.973c0-1.343.522-2.605 1.473-3.555.949-.949 2.212-1.472 3.554-1.472 1.262 0 2.443.477 3.37 1.32-2.865 1.786-5.291 4.212-7.077 7.077-.844-.927-1.32-2.108-1.32-3.37zm18 20.973c.771 0 1.468-.301 2-.78.532.48 1.229.78 2 .78 1.654 0 3-1.346 3-3h-2c0 .551-.448 1-1 1s-1-.449-1-1v-3.184c1.161-.414 2-1.514 2-2.816 0-1.654-1.346-3-3-3s-3 1.346-3 3c0 1.302.839 2.402 2 2.816v3.184c0 .551-.448 1-1 1s-1-.449-1-1h-2c0 1.654 1.346 3 3 3zm2-10c.552 0 1 .449 1 1s-.448 1-1 1-1-.449-1-1 .448-1 1-1zm-7-6c1.654 0 3-1.346 3-3s-1.346-3-3-3-3 1.346-3 3 1.346 3 3 3zm0-4c.552 0 1 .449 1 1s-.448 1-1 1-1-.449-1-1 .448-1 1-1zm14 4c1.654 0 3-1.346 3-3s-1.346-3-3-3-3 1.346-3 3 1.346 3 3 3zm0-4c.552 0 1 .449 1 1s-.448 1-1 1-1-.449-1-1 .448-1 1-1zm20-4c1.654 0 3-1.346 3-3s-1.346-3-3-3-3 1.346-3 3 1.346 3 3 3zm0-4c.552 0 1 .449 1 1s-.448 1-1 1-1-.449-1-1 .448-1 1-1z" fill="url(#SVGID_1_)"/></svg>