<svg id="_x30_1_Parrot" enable-background="new 0 0 64 64" height="512" viewBox="0 0 64 64" width="512" xmlns="http://www.w3.org/2000/svg" xmlns:xlink="http://www.w3.org/1999/xlink"><linearGradient id="SVGID_1_" gradientUnits="userSpaceOnUse" x1="32" x2="32" y1="63" y2="1"><stop offset="0" stop-color="#9f2fff"/><stop offset="1" stop-color="#0bb1d3"/></linearGradient><path d="m48 46c0-2.206-1.794-4-4-4-1.328 0-3.164.538-4.596 3h-14.808c-1.433-2.462-3.268-3-4.596-3-2.206 0-4 1.794-4 4 0 1.367.682 2.358 1.342 3-.66.642-1.342 1.633-1.342 3 0 2.206 1.794 4 4 4 1.328 0 3.164-.538 4.596-3h14.808c1.433 2.462 3.268 3 4.596 3 2.206 0 4-1.794 4-4 0-1.367-.682-2.358-1.342-3 .66-.642 1.342-1.633 1.342-3zm-4 8c-1.267 0-2.282-.8-3.105-2.447l-.277-.553h-17.236l-.276.553c-.824 1.647-1.839 2.447-3.106 2.447-1.103 0-2-.897-2-2 0-.896.635-1.525 1.064-1.85l1.488.744.895-1.789-1.994-.997c-.015-.007-1.453-.766-1.453-2.108 0-1.103.897-2 2-2 1.267 0 2.282.8 3.105 2.447l.277.553h17.236l.276-.553c.824-1.647 1.839-2.447 3.106-2.447 1.103 0 2 .897 2 2 0 1.342-1.438 2.101-1.447 2.105l-2 1 .895 1.789 1.488-.744c.43.327 1.064.955 1.064 1.85 0 1.103-.897 2-2 2zm11.385-32.935c-.226-.285-.455-.549-.678-.772-.757-.757-1.813-1.181-3.115-1.569-1.309-3.403-5.681-13.724-10.592-13.724-2.299 0-3.629 1.724-4.325 3.098-.068-.109-.137-.219-.204-.328-2.158-3.481-4.196-6.77-7.471-6.77-5.777 0-8.19 5.017-10.319 9.443-1.456 3.027-2.831 5.886-4.998 6.608-1.685.562-4.16 1.939-5.577 4.16-3.944 1.11-7.106 2.297-7.106 4.789v6c0 .334.057 8.113 4.927 14.265-.371 2.002-1.461 9.534 2.437 12.508.639.56 5.523 4.227 23.636 4.227s22.997-3.667 23.636-4.227c3.897-2.974 2.807-10.505 2.437-12.508 4.87-6.152 4.927-13.931 4.927-14.265v-6c0-2.831-3.011-3.806-7.615-4.935zm-14.385-14.065c2.693 0 6.099 6.071 8.169 11.05-1.972-.556-4.271-1.319-6.615-2.882-1.825-1.217-3.259-3.043-4.562-5.004.143-.485 1.019-3.164 3.008-3.164zm-26.684 11.949c.493-.164.936-.41 1.358-.689 1.141.945 3.982 1.74 10.326 1.74v-2c-5.971 0-8.083-.738-8.772-1.114 1.278-1.48 2.252-3.489 3.256-5.576 2.055-4.273 3.996-8.31 8.516-8.31 2.162 0 3.834 2.699 5.77 5.824 1.761 2.842 3.757 6.062 6.675 8.008 3.036 2.024 5.918 2.806 8.234 3.434 1.665.451 2.979.808 3.613 1.441.981.981 1.673 2.267 1.706 3.158-.71 1.08-8.268 3.135-22.998 3.135-14.736 0-22.294-2.056-23-3.136.046-3.29 3.49-5.306 5.316-5.915zm41.708 27.267c.515 2.33 1.227 8.845-1.624 10.984l-.092.079c-.041.037-4.244 3.721-22.308 3.721s-22.267-3.684-22.293-3.707l-.107-.093c-2.851-2.139-2.139-8.654-1.624-10.984l.106-.479-.314-.377c-2.771-3.326-3.927-7.34-4.413-10.097 4.921 3.12 16.834 4.737 28.645 4.737 11.814 0 23.731-1.618 28.649-4.74-.483 2.754-1.637 6.764-4.417 10.1l-.314.377zm-24.024-8.216c-17.967 0-29-3.495-29-6v-.001-2.969c4.684 3.273 16.898 4.97 29 4.97s24.316-1.697 29-4.97v2.97c0 2.505-11.033 6-29 6zm0-6c-17.967 0-29-3.495-29-6 0-.917 2.22-1.803 4.143-2.415-.087.429-.143.874-.143 1.345 0 4.928 22.441 5.07 25 5.07s25-.142 25-5.07c0-.479-.101-.966-.261-1.445 3.541.988 4.261 1.657 4.261 2.515 0 2.505-11.033 6-29 6zm-2-14h4v2h-4zm8.997 2 .003-2c1.383 0 4 .627 4 3s-2.617 3-4 3v-2c.017 0 2-.056 2-1s-1.983-1-2.003-1zm-8.997 6c-7.019 0-11.988-.978-12.196-1.02l.392-1.961c.049.01 4.997.981 11.804.981zm18-2h-2v-2h2zm-20-9c-2.532 0-6 0-6-3h2c0 .851 1.29 1 4 1 2.766 0 4-.145 4-1h2c0 3-3.468 3-6 3zm0-5h-2v-2h2zm4 14h2v2h-2z" fill="url(#SVGID_1_)"/></svg>