<svg id="_x30_1_Parrot" enable-background="new 0 0 64 64" height="512" viewBox="0 0 64 64" width="512" xmlns="http://www.w3.org/2000/svg" xmlns:xlink="http://www.w3.org/1999/xlink"><linearGradient id="SVGID_1_" gradientUnits="userSpaceOnUse" x1="32" x2="32" y1="63" y2="2"><stop offset="0" stop-color="#9f2fff"/><stop offset="1" stop-color="#0bb1d3"/></linearGradient><path d="m32 49.5c2.206 0 4-1.794 4-4 0-1.849-2.624-6.178-3.149-7.026l-.851-1.372-.851 1.372c-.525.848-3.149 5.177-3.149 7.026 0 2.206 1.794 4 4 4zm0-8.535c1.069 1.891 2 3.862 2 4.535 0 1.103-.897 2-2 2s-2-.897-2-2c0-.672.931-2.644 2-4.535zm3.963 15.962.074 1.998c-1.352.05-2.711.075-4.037.075-2.851 0-5.646-.108-8.084-.314l.168-1.992c3.492.293 7.701.386 11.879.233zm7.862-.715.35 1.969c-1.609.286-3.725.511-6.117.649l-.115-1.996c2.314-.135 4.348-.35 5.882-.622zm-21.778-30.411c-.817.373-1.744.795-2.602 1.367-3.348 2.232-3.445 4.573-3.445 4.832v1 27c0 2.479 8.701 3 16 3s16-.521 16-3v-28c0-.259-.097-2.6-3.445-4.832-.857-.572-1.784-.994-2.602-1.367-1.293-.59-2.164-1.025-2.608-1.658 1.019-.446 1.655-1.121 1.655-2.143v-6.516c0-1.984-2.933-2.835-5.022-3.19.01-.097.022-.194.022-.294v-6c0-1.067-.416-2.071-1.173-2.827-.756-.756-1.761-1.173-2.827-1.173-2.206 0-4 1.794-4 4v6c0 .1.012.197.022.295-2.089.355-5.022 1.205-5.022 3.189v6.516c0 1.022.636 1.697 1.655 2.143-.444.633-1.315 1.069-2.608 1.658zm17.953 17.199c0 4.411-3.589 8-8 8s-8-3.589-8-8 3.589-8 8-8 8 3.589 8 8zm-18 0c0 3.165 1.482 5.986 3.784 7.819-4.399-.272-7.019-.797-7.784-1.167v-15.936c1.893.647 4.926.989 8.201 1.153-2.538 1.815-4.201 4.78-4.201 8.131zm10 18c-8.202 0-12.922-.826-14-1.347v-7.947c2.991 1.03 8.839 1.294 14 1.294s11.009-.264 14-1.293v7.947c-1.078.52-5.798 1.346-14 1.346zm14-11.348c-.766.371-3.386.895-7.784 1.167 2.302-1.833 3.784-4.654 3.784-7.819 0-3.351-1.663-6.316-4.201-8.131 3.276-.164 6.309-.506 8.201-1.153zm-21-27.652-.005-3.831c1.3.475 3.439.831 7.005.831 3.561 0 5.699-.355 7-.829v3.829c0 .01-.08 1-7 1s-7-.99-7-1zm5-16c0-1.103.897-2 2-2 .532 0 1.034.208 1.413.587s.587.88.587 1.413v6c0 .206-.057.397-.167.558-.188.276-.5.442-.833.442h-2c-.333 0-.645-.166-.836-.446-.107-.157-.164-.348-.164-.554zm-1.049 8.182c.551.516 1.277.818 2.049.818h2c.772 0 1.499-.302 2.049-.818 2.643.357 3.83 1.064 3.951 1.302v.444c-.268.306-2.004 1.072-7 1.072-5.046 0-6.767-.782-7.008-1.081v-.379c.128-.291 1.316-1.001 3.959-1.358zm-3.959 1.785c.003.013.008.017.008.033h-.008zm7.008 9.033c1.86 0 3.77-.044 5.351-.308.692 1.518 2.304 2.26 3.773 2.929.785.358 1.597.728 2.321 1.211 1.793 1.195 2.328 2.321 2.488 2.852-1.196.521-5.89 1.316-13.933 1.316-8.052 0-12.739-.796-13.927-1.317.161-.542.694-1.659 2.482-2.851.725-.483 1.536-.853 2.321-1.211 1.469-.67 3.081-1.412 3.773-2.929 1.581.264 3.491.308 5.351.308z" fill="url(#SVGID_1_)"/></svg>